<svg xmlns="http://www.w3.org/2000/svg" viewBox="0 0 64 64">
  <defs>
    <linearGradient id="g" x1="0" y1="0" x2="1" y2="1">
      <stop offset="0" stop-color="#7c3aed"/>
      <stop offset="1" stop-color="#16a34a"/>
    </linearGradient>
  </defs>
  <rect width="64" height="64" rx="14" fill="url(#g)"/>
  <!-- Monograma "CT" minimal -->
  <path d="M26 44c-6 0-10-5-10-12s4-12 10-12c3 0 5 1 7 3l-3 3c-1-1-2-2-4-2-4 0-6 3-6 8s2 8 6 8c2 0 3-1 4-2l3 3c-2 2-4 3-7 3Z" fill="white"/>
  <path d="M34 20h6c4 0 8 4 8 12s-4 12-8 12h-6v-6h6c2 0 4-2 4-6s-2-6-4-6h-6v-6Z" fill="white"/>
</svg>
